# xmcd
#
# Track frame offsets:
#	150
#	13182
#	26378
#	36616
#	51230
#	64910
#	80000
#	97386
#	109251
#	123488
#
# Disc length: 1789 seconds
#
# Revision: 1
# Processed by: cddbd v1.5.2PL0 Copyright (c) Steve Scherf et al.
# Submitted via: audiograbber 1.83.01
#
DISCID=9206fb0a
DTITLE=Mark Fields - Mark Fields
DYEAR=1900
DGENRE=
TTITLE0=Country At Heart
TTITLE1=In Memory Of Your Memory
TTITLE2=Highway To Heaven
TTITLE3=Prettist Girl
TTITLE4=Me All Alone
TTITLE5=Heroes Never Die
TTITLE6=Music To My Tears
TTITLE7=Out Of His Hands
TTITLE8=Anyboddy But You
TTITLE9=Thank God For Jesus
EXTD=
EXTT0=
EXTT1=
EXTT2=
EXTT3=
EXTT4=
EXTT5=
EXTT6=
EXTT7=
EXTT8=
EXTT9=
PLAYORDER=
